<?xml version="1.0" encoding="utf-8"?>
<!-- Generator: Adobe Illustrator 27.9.0, SVG Export Plug-In . SVG Version: 6.00 Build 0)  -->
<svg version="1.1" id="Layer_1" xmlns="http://www.w3.org/2000/svg" xmlns:xlink="http://www.w3.org/1999/xlink" x="0px" y="0px"
	 viewBox="0 0 24 24" style="enable-background:new 0 0 24 24;" xml:space="preserve">
<style type="text/css">
	.st0{fill:none;}
</style>
<path d="M5,21c-0.5,0-1-0.2-1.4-0.6S3,19.5,3,19V5c0-0.5,0.2-1,0.6-1.4S4.5,3,5,3h14c0.6,0,1,0.2,1.4,0.6S21,4.4,21,5v14
	c0,0.5-0.2,1-0.6,1.4S19.6,21,19,21H5z M6,17h12l-3.8-5l-3,4L9,13L6,17z M8.5,10c0.4,0,0.8-0.1,1.1-0.4C9.9,9.3,10,8.9,10,8.5
	S9.9,7.7,9.6,7.4C9.3,7.1,8.9,7,8.5,7C8.1,7,7.7,7.1,7.4,7.4C7.1,7.7,7,8.1,7,8.5s0.1,0.8,0.4,1.1S8.1,10,8.5,10z"/>
<line class="st0" x1="0" y1="0" x2="24" y2="24"/>
<line class="st0" x1="24" y1="0" x2="0" y2="24"/>
</svg>
