<?xml version="1.0" encoding="utf-8"?>
<!-- Generator: Adobe Illustrator 27.9.0, SVG Export Plug-In . SVG Version: 6.00 Build 0)  -->
<svg version="1.1" id="Layer_1" xmlns="http://www.w3.org/2000/svg" xmlns:xlink="http://www.w3.org/1999/xlink" x="0px" y="0px"
	 viewBox="0 0 24 24" style="enable-background:new 0 0 24 24;" xml:space="preserve">
<style type="text/css">
	.st0{fill:none;}
</style>
<path d="M17.3,4.4c-1.1-1.3-2.6-2.1-4.3-2.3V9h6C19,7.3,18.4,5.7,17.3,4.4z M6.7,4.4C5.6,5.7,5,7.3,5,9h6V2.1
	C9.3,2.3,7.8,3.1,6.7,4.4z"/>
<path d="M5,11v4c0,3.9,3.1,7,7,7s7-3.1,7-7v-4H5z M13,18h-2v-4h2V18z"/>
<line class="st0" x1="0" y1="0" x2="24" y2="24"/>
<line class="st0" x1="24" y1="0" x2="0" y2="24"/>
</svg>
