<?xml version="1.0" encoding="utf-8"?>
<!-- Generator: Adobe Illustrator 27.9.0, SVG Export Plug-In . SVG Version: 6.00 Build 0)  -->
<svg version="1.1" id="Layer_1" xmlns="http://www.w3.org/2000/svg" xmlns:xlink="http://www.w3.org/1999/xlink" x="0px" y="0px"
	 viewBox="0 0 24 24" style="enable-background:new 0 0 24 24;" xml:space="preserve">
<style type="text/css">
	.st0{fill:none;}
</style>
<path d="M10,21c-1.1,0-2-0.4-2.8-1.2C6.4,19,6,18.1,6,17s0.4-2,1.2-2.8C8,13.4,8.9,13,10,13c0.4,0,0.7,0,1.1,0.1s0.6,0.2,0.9,0.4V3
	h6v4h-4v10c0,1.1-0.4,2-1.2,2.8C12,20.6,11.1,21,10,21z"/>
<line class="st0" x1="0" y1="0" x2="24" y2="24"/>
<line class="st0" x1="24" y1="0" x2="0" y2="24"/>
</svg>
