<?xml version="1.0" encoding="utf-8"?>
<!-- Generator: Adobe Illustrator 27.9.0, SVG Export Plug-In . SVG Version: 6.00 Build 0)  -->
<svg version="1.1" id="Layer_1" xmlns="http://www.w3.org/2000/svg" xmlns:xlink="http://www.w3.org/1999/xlink" x="0px" y="0px"
	 viewBox="0 0 24 24" style="enable-background:new 0 0 24 24;" xml:space="preserve">
<style type="text/css">
	.st0{fill:none;}
</style>
<path d="M1.1,20l3.4-6.9c0.2-0.3,0.4-0.6,0.7-0.8C5.6,12.1,6,12,6.3,12c0.4,0,0.8,0.1,1.1,0.3c0.3,0.2,0.6,0.5,0.7,0.9l0.7,1.6
	C8.9,14.9,9,15,9.1,15c0.1,0,0.2-0.1,0.2-0.2l2.1-7.2c0.2-0.8,0.7-1.4,1.3-1.9C13.4,5.2,14.2,5,15,5c0.8,0,1.5,0.2,2.2,0.7
	c0.6,0.5,1.1,1.1,1.3,1.9L22.9,20h-2.1L16.6,8.2c-0.1-0.4-0.3-0.7-0.6-0.9C15.7,7.1,15.4,7,15,7c-0.4,0-0.7,0.1-1,0.3
	c-0.3,0.2-0.5,0.5-0.6,0.9l-2.1,7.2c-0.2,0.5-0.4,0.9-0.8,1.1C10,16.9,9.6,17,9.1,17c-0.4,0-0.9-0.1-1.2-0.4c-0.4-0.2-0.7-0.6-0.8-1
	L6.3,14l-3,6H1.1z"/>
<line class="st0" x1="0" y1="0" x2="24" y2="24"/>
<line class="st0" x1="0" y1="24" x2="24" y2="0"/>
</svg>
