<?xml version="1.0" encoding="utf-8"?>
<!-- Generator: Adobe Illustrator 27.9.0, SVG Export Plug-In . SVG Version: 6.00 Build 0)  -->
<svg version="1.1" id="Layer_1" xmlns="http://www.w3.org/2000/svg" xmlns:xlink="http://www.w3.org/1999/xlink" x="0px" y="0px"
	 viewBox="0 0 24 24" style="enable-background:new 0 0 24 24;" xml:space="preserve">
<style type="text/css">
	.st0{fill:none;}
</style>
<path d="M4,20c-0.5,0-1-0.2-1.4-0.6S2,18.5,2,18V6c0-0.5,0.2-1,0.6-1.4C3,4.2,3.5,4,4,4h12c0.6,0,1,0.2,1.4,0.6C17.8,5,18,5.4,18,6
	v4.5l4-4v11l-4-4V18c0,0.5-0.2,1-0.6,1.4S16.6,20,16,20H4z"/>
<line class="st0" x1="0" y1="0" x2="24" y2="24"/>
<line class="st0" x1="24" y1="0" x2="0" y2="24"/>
</svg>
