<?xml version="1.0" encoding="utf-8"?>
<!-- Generator: Adobe Illustrator 27.9.0, SVG Export Plug-In . SVG Version: 6.00 Build 0)  -->
<svg version="1.1" id="Layer_1" xmlns="http://www.w3.org/2000/svg" xmlns:xlink="http://www.w3.org/1999/xlink" x="0px" y="0px"
	 viewBox="0 0 24 24" style="enable-background:new 0 0 24 24;" xml:space="preserve">
<style type="text/css">
	.st0{fill:none;}
</style>
<path d="M18.8,13.6c-0.4,0.4-1,0.8-1.5,1c-0.6,0.2-1.2,0.3-1.7,0.3c-0.6,0-1.2-0.1-1.7-0.3c-0.6-0.2-1.1-0.6-1.5-1l-1.9-1.9
	c-0.2-0.2-0.5-0.4-0.8-0.6S8.8,11,8.5,11s-0.7,0.1-1,0.2s-0.6,0.3-0.8,0.6l-1.9,1.9l-1.4-1.4l1.9-1.9c0.5-0.4,1-0.8,1.5-1
	C7.3,9.1,7.9,9,8.5,9s1.2,0.1,1.7,0.3c0.6,0.2,1.1,0.6,1.5,1l1.9,1.9c0.3,0.3,0.6,0.5,0.9,0.6c0.3,0.1,0.6,0.2,1,0.2
	c0.3,0,0.7-0.1,1-0.2c0.3-0.1,0.6-0.3,0.9-0.6l1.9-1.9l1.4,1.4L18.8,13.6z"/>
<line class="st0" x1="0" y1="0" x2="24" y2="24"/>
<line class="st0" x1="24" y1="0" x2="0" y2="24"/>
</svg>
