<?xml version="1.0" encoding="utf-8"?>
<!-- Generator: Adobe Illustrator 27.9.0, SVG Export Plug-In . SVG Version: 6.00 Build 0)  -->
<svg version="1.1" id="Layer_1" xmlns="http://www.w3.org/2000/svg" xmlns:xlink="http://www.w3.org/1999/xlink" x="0px" y="0px"
	 viewBox="0 0 24 24" style="enable-background:new 0 0 24 24;" xml:space="preserve">
<style type="text/css">
	.st0{fill:none;}
</style>
<path d="M18.8,8.6c-0.4,0.4-1,0.8-1.5,1C16.6,9.9,16,10,15.4,10c-0.6,0-1.2-0.1-1.7-0.3c-0.6-0.2-1.1-0.6-1.5-1l-1.9-1.9
	c-0.2-0.2-0.5-0.4-0.8-0.6S8.8,6,8.5,6c-0.3,0-0.7,0.1-1,0.2S6.9,6.5,6.7,6.8L4.8,8.6L3.4,7.2l1.9-1.9c0.5-0.5,1-0.8,1.5-1
	S7.9,4,8.5,4s1.2,0.1,1.7,0.3c0.6,0.2,1.1,0.6,1.5,1l1.9,1.9c0.3,0.3,0.6,0.5,0.9,0.6c0.3,0.1,0.6,0.2,1,0.2c0.3,0,0.7-0.1,1-0.2
	c0.3-0.1,0.6-0.3,0.9-0.6l1.9-1.9l1.4,1.4L18.8,8.6z M18.8,13.6c-0.4,0.4-1,0.8-1.5,1c-0.6,0.2-1.2,0.3-1.7,0.3
	c-0.6,0-1.2-0.1-1.7-0.3c-0.6-0.2-1.1-0.6-1.5-1l-1.9-1.9c-0.2-0.2-0.5-0.4-0.8-0.6S8.8,11,8.5,11c-0.3,0-0.7,0.1-1,0.2
	s-0.6,0.3-0.8,0.6l-1.9,1.9l-1.4-1.4l1.9-1.9c0.5-0.4,1-0.8,1.5-1C7.3,9.1,7.9,9,8.5,9s1.2,0.1,1.7,0.3c0.6,0.2,1.1,0.6,1.5,1
	l1.9,1.9c0.3,0.3,0.6,0.5,0.9,0.6c0.3,0.1,0.6,0.2,1,0.2c0.3,0,0.7-0.1,1-0.2c0.3-0.1,0.6-0.3,0.9-0.6l1.9-1.9l1.4,1.4L18.8,13.6z
	 M18.7,18.6c-0.5,0.5-1,0.8-1.5,1S16.1,20,15.5,20c-0.6,0-1.2-0.1-1.7-0.3s-1.1-0.6-1.5-1l-1.9-1.9c-0.2-0.2-0.5-0.4-0.9-0.6
	c-0.3-0.1-0.6-0.2-1-0.2c-0.3,0-0.7,0.1-1,0.2c-0.3,0.1-0.6,0.3-0.8,0.6l-1.9,1.9l-1.4-1.4l1.9-1.9c0.5-0.4,1-0.8,1.5-1
	C7.3,14.1,7.9,14,8.5,14s1.2,0.1,1.7,0.3c0.6,0.2,1.1,0.6,1.5,1l1.9,1.9c0.3,0.3,0.6,0.5,0.9,0.6s0.7,0.2,1,0.2s0.7-0.1,1-0.2
	s0.6-0.3,0.9-0.6l1.9-1.9l1.4,1.4L18.7,18.6z"/>
<line class="st0" x1="0" y1="0" x2="24" y2="24"/>
<line class="st0" x1="24" y1="0" x2="0" y2="24"/>
</svg>
