<?xml version="1.0" encoding="UTF-8"?>
<svg id="Layer_2" data-name="Layer 2" xmlns="http://www.w3.org/2000/svg" viewBox="0 0 80.01 80.01">
  <defs>
    <style>
      .cls-1 {
        fill: #fff;
        stroke-width: 0px;
      }
    </style>
  </defs>
  <g id="Ebene_1" data-name="Ebene 1" shape-rendering="auto">
    <g>
      <rect class="cls-1" x="28.8" y="0" width="3.2" height="3.2"/>
      <rect class="cls-1" x="44.8" y="0" width="3.2" height="3.2"/>
      <rect class="cls-1" x="51.2" y="0" width="3.2" height="3.2"/>
      <rect class="cls-1" x="25.6" y="3.2" width="3.2" height="3.2"/>
      <rect class="cls-1" x="28.8" y="3.2" width="3.2" height="3.2"/>
      <rect class="cls-1" x="35.2" y="3.2" width="3.2" height="3.2"/>
      <rect class="cls-1" x="38.4" y="3.2" width="3.2" height="3.2"/>
      <rect class="cls-1" x="41.6" y="3.2" width="3.2" height="3.2"/>
      <rect class="cls-1" x="44.8" y="3.2" width="3.2" height="3.2"/>
      <rect class="cls-1" x="28.8" y="6.4" width="3.2" height="3.2"/>
      <rect class="cls-1" x="32" y="6.4" width="3.2" height="3.2"/>
      <rect class="cls-1" x="35.2" y="6.4" width="3.2" height="3.2"/>
      <rect class="cls-1" x="25.6" y="9.6" width="3.2" height="3.2"/>
      <rect class="cls-1" x="28.8" y="9.6" width="3.2" height="3.2"/>
      <rect class="cls-1" x="35.2" y="9.6" width="3.2" height="3.2"/>
      <rect class="cls-1" x="41.6" y="9.6" width="3.2" height="3.2"/>
      <rect class="cls-1" x="48" y="9.6" width="3.2" height="3.2"/>
      <rect class="cls-1" x="51.2" y="9.6" width="3.2" height="3.2"/>
      <rect class="cls-1" x="32" y="12.8" width="3.2" height="3.2"/>
      <rect class="cls-1" x="38.4" y="12.8" width="3.2" height="3.2"/>
      <rect class="cls-1" x="48" y="12.8" width="3.2" height="3.2"/>
      <rect class="cls-1" x="51.2" y="12.8" width="3.2" height="3.2"/>
      <rect class="cls-1" x="25.6" y="16" width="3.2" height="3.2"/>
      <rect class="cls-1" x="32" y="16" width="3.2" height="3.2"/>
      <rect class="cls-1" x="41.6" y="16" width="3.2" height="3.2"/>
      <rect class="cls-1" x="44.8" y="16" width="3.2" height="3.2"/>
      <rect class="cls-1" x="48" y="16" width="3.2" height="3.2"/>
      <rect class="cls-1" x="25.6" y="19.2" width="3.2" height="3.2"/>
      <rect class="cls-1" x="32" y="19.2" width="3.2" height="3.2"/>
      <rect class="cls-1" x="38.4" y="19.2" width="3.2" height="3.2"/>
      <rect class="cls-1" x="44.8" y="19.2" width="3.2" height="3.2"/>
      <rect class="cls-1" x="51.2" y="19.2" width="3.2" height="3.2"/>
      <rect class="cls-1" x="38.4" y="22.4" width="3.2" height="3.2"/>
      <rect class="cls-1" x="51.2" y="22.4" width="3.2" height="3.2"/>
      <rect class="cls-1" x="0" y="25.6" width="3.2" height="3.2"/>
      <rect class="cls-1" x="3.2" y="25.6" width="3.2" height="3.2"/>
      <rect class="cls-1" x="6.4" y="25.6" width="3.2" height="3.2"/>
      <rect class="cls-1" x="9.6" y="25.6" width="3.2" height="3.2"/>
      <rect class="cls-1" x="12.8" y="25.6" width="3.2" height="3.2"/>
      <rect class="cls-1" x="19.2" y="25.6" width="3.2" height="3.2"/>
      <rect class="cls-1" x="22.4" y="25.6" width="3.2" height="3.2"/>
      <rect class="cls-1" x="25.6" y="25.6" width="3.2" height="3.2"/>
      <rect class="cls-1" x="28.8" y="25.6" width="3.2" height="3.2"/>
      <rect class="cls-1" x="32" y="25.6" width="3.2" height="3.2"/>
      <rect class="cls-1" x="38.4" y="25.6" width="3.2" height="3.2"/>
      <rect class="cls-1" x="41.6" y="25.6" width="3.2" height="3.2"/>
      <rect class="cls-1" x="44.8" y="25.6" width="3.2" height="3.2"/>
      <rect class="cls-1" x="48" y="25.6" width="3.2" height="3.2"/>
      <rect class="cls-1" x="54.4" y="25.6" width="3.2" height="3.2"/>
      <rect class="cls-1" x="60.8" y="25.6" width="3.2" height="3.2"/>
      <rect class="cls-1" x="67.2" y="25.6" width="3.2" height="3.2"/>
      <rect class="cls-1" x="73.6" y="25.6" width="3.2" height="3.2"/>
      <rect class="cls-1" x="3.2" y="28.8" width="3.2" height="3.2"/>
      <rect class="cls-1" x="6.4" y="28.8" width="3.2" height="3.2"/>
      <rect class="cls-1" x="16" y="28.8" width="3.2" height="3.2"/>
      <rect class="cls-1" x="25.6" y="28.8" width="3.2" height="3.2"/>
      <rect class="cls-1" x="28.8" y="28.8" width="3.2" height="3.2"/>
      <rect class="cls-1" x="48" y="28.8" width="3.2" height="3.2"/>
      <rect class="cls-1" x="51.2" y="28.8" width="3.2" height="3.2"/>
      <rect class="cls-1" x="54.4" y="28.8" width="3.2" height="3.2"/>
      <rect class="cls-1" x="60.8" y="28.8" width="3.2" height="3.2"/>
      <rect class="cls-1" x="64" y="28.8" width="3.2" height="3.2"/>
      <rect class="cls-1" x="76.8" y="28.8" width="3.2" height="3.2"/>
      <rect class="cls-1" x="0" y="32" width="3.2" height="3.2"/>
      <rect class="cls-1" x="16" y="32" width="3.2" height="3.2"/>
      <rect class="cls-1" x="19.2" y="32" width="3.2" height="3.2"/>
      <rect class="cls-1" x="22.4" y="32" width="3.2" height="3.2"/>
      <rect class="cls-1" x="25.6" y="32" width="3.2" height="3.2"/>
      <rect class="cls-1" x="28.8" y="32" width="3.2" height="3.2"/>
      <rect class="cls-1" x="35.2" y="32" width="3.2" height="3.2"/>
      <rect class="cls-1" x="38.4" y="32" width="3.2" height="3.2"/>
      <rect class="cls-1" x="44.8" y="32" width="3.2" height="3.2"/>
      <rect class="cls-1" x="48" y="32" width="3.2" height="3.2"/>
      <rect class="cls-1" x="54.4" y="32" width="3.2" height="3.2"/>
      <rect class="cls-1" x="57.6" y="32" width="3.2" height="3.2"/>
      <rect class="cls-1" x="64" y="32" width="3.2" height="3.2"/>
      <rect class="cls-1" x="70.4" y="32" width="3.2" height="3.2"/>
      <rect class="cls-1" x="6.4" y="35.2" width="3.2" height="3.2"/>
      <rect class="cls-1" x="12.8" y="35.2" width="3.2" height="3.2"/>
      <rect class="cls-1" x="22.4" y="35.2" width="3.2" height="3.2"/>
      <rect class="cls-1" x="25.6" y="35.2" width="3.2" height="3.2"/>
      <rect class="cls-1" x="28.8" y="35.2" width="3.2" height="3.2"/>
      <rect class="cls-1" x="32" y="35.2" width="3.2" height="3.2"/>
      <rect class="cls-1" x="35.2" y="35.2" width="3.2" height="3.2"/>
      <rect class="cls-1" x="41.6" y="35.2" width="3.2" height="3.2"/>
      <rect class="cls-1" x="51.2" y="35.2" width="3.2" height="3.2"/>
      <rect class="cls-1" x="54.4" y="35.2" width="3.2" height="3.2"/>
      <rect class="cls-1" x="0" y="38.4" width="3.2" height="3.2"/>
      <rect class="cls-1" x="16" y="38.4" width="3.2" height="3.2"/>
      <rect class="cls-1" x="19.2" y="38.4" width="3.2" height="3.2"/>
      <rect class="cls-1" x="22.4" y="38.4" width="3.2" height="3.2"/>
      <rect class="cls-1" x="25.6" y="38.4" width="3.2" height="3.2"/>
      <rect class="cls-1" x="28.8" y="38.4" width="3.2" height="3.2"/>
      <rect class="cls-1" x="35.2" y="38.4" width="3.2" height="3.2"/>
      <rect class="cls-1" x="41.6" y="38.4" width="3.2" height="3.2"/>
      <rect class="cls-1" x="48" y="38.4" width="3.2" height="3.2"/>
      <rect class="cls-1" x="57.6" y="38.4" width="3.2" height="3.2"/>
      <rect class="cls-1" x="60.8" y="38.4" width="3.2" height="3.2"/>
      <rect class="cls-1" x="64" y="38.4" width="3.2" height="3.2"/>
      <rect class="cls-1" x="67.2" y="38.4" width="3.2" height="3.2"/>
      <rect class="cls-1" x="73.6" y="38.4" width="3.2" height="3.2"/>
      <rect class="cls-1" x="76.8" y="38.4" width="3.2" height="3.2"/>
      <rect class="cls-1" x="0" y="41.6" width="3.2" height="3.2"/>
      <rect class="cls-1" x="6.4" y="41.6" width="3.2" height="3.2"/>
      <rect class="cls-1" x="9.6" y="41.6" width="3.2" height="3.2"/>
      <rect class="cls-1" x="12.8" y="41.6" width="3.2" height="3.2"/>
      <rect class="cls-1" x="25.6" y="41.6" width="3.2" height="3.2"/>
      <rect class="cls-1" x="32" y="41.6" width="3.2" height="3.2"/>
      <rect class="cls-1" x="38.4" y="41.6" width="3.2" height="3.2"/>
      <rect class="cls-1" x="44.8" y="41.6" width="3.2" height="3.2"/>
      <rect class="cls-1" x="51.2" y="41.6" width="3.2" height="3.2"/>
      <rect class="cls-1" x="54.4" y="41.6" width="3.2" height="3.2"/>
      <rect class="cls-1" x="57.6" y="41.6" width="3.2" height="3.2"/>
      <rect class="cls-1" x="60.8" y="41.6" width="3.2" height="3.2"/>
      <rect class="cls-1" x="64" y="41.6" width="3.2" height="3.2"/>
      <rect class="cls-1" x="0" y="44.8" width="3.2" height="3.2"/>
      <rect class="cls-1" x="12.8" y="44.8" width="3.2" height="3.2"/>
      <rect class="cls-1" x="19.2" y="44.8" width="3.2" height="3.2"/>
      <rect class="cls-1" x="22.4" y="44.8" width="3.2" height="3.2"/>
      <rect class="cls-1" x="32" y="44.8" width="3.2" height="3.2"/>
      <rect class="cls-1" x="44.8" y="44.8" width="3.2" height="3.2"/>
      <rect class="cls-1" x="54.4" y="44.8" width="3.2" height="3.2"/>
      <rect class="cls-1" x="57.6" y="44.8" width="3.2" height="3.2"/>
      <rect class="cls-1" x="64" y="44.8" width="3.2" height="3.2"/>
      <rect class="cls-1" x="70.4" y="44.8" width="3.2" height="3.2"/>
      <rect class="cls-1" x="73.6" y="44.8" width="3.2" height="3.2"/>
      <rect class="cls-1" x="76.8" y="44.8" width="3.2" height="3.2"/>
      <rect class="cls-1" x="0" y="48" width="3.2" height="3.2"/>
      <rect class="cls-1" x="6.4" y="48" width="3.2" height="3.2"/>
      <rect class="cls-1" x="9.6" y="48" width="3.2" height="3.2"/>
      <rect class="cls-1" x="12.8" y="48" width="3.2" height="3.2"/>
      <rect class="cls-1" x="16" y="48" width="3.2" height="3.2"/>
      <rect class="cls-1" x="22.4" y="48" width="3.2" height="3.2"/>
      <rect class="cls-1" x="25.6" y="48" width="3.2" height="3.2"/>
      <rect class="cls-1" x="28.8" y="48" width="3.2" height="3.2"/>
      <rect class="cls-1" x="32" y="48" width="3.2" height="3.2"/>
      <rect class="cls-1" x="38.4" y="48" width="3.2" height="3.2"/>
      <rect class="cls-1" x="44.8" y="48" width="3.2" height="3.2"/>
      <rect class="cls-1" x="54.4" y="48" width="3.2" height="3.2"/>
      <rect class="cls-1" x="73.6" y="48" width="3.2" height="3.2"/>
      <rect class="cls-1" x="76.8" y="48" width="3.2" height="3.2"/>
      <rect class="cls-1" x="0" y="51.2" width="3.2" height="3.2"/>
      <rect class="cls-1" x="6.4" y="51.2" width="3.2" height="3.2"/>
      <rect class="cls-1" x="12.8" y="51.2" width="3.2" height="3.2"/>
      <rect class="cls-1" x="19.2" y="51.2" width="3.2" height="3.2"/>
      <rect class="cls-1" x="25.6" y="51.2" width="3.2" height="3.2"/>
      <rect class="cls-1" x="32" y="51.2" width="3.2" height="3.2"/>
      <rect class="cls-1" x="38.4" y="51.2" width="3.2" height="3.2"/>
      <rect class="cls-1" x="41.6" y="51.2" width="3.2" height="3.2"/>
      <rect class="cls-1" x="48" y="51.2" width="3.2" height="3.2"/>
      <rect class="cls-1" x="51.2" y="51.2" width="3.2" height="3.2"/>
      <rect class="cls-1" x="54.4" y="51.2" width="3.2" height="3.2"/>
      <rect class="cls-1" x="57.6" y="51.2" width="3.2" height="3.2"/>
      <rect class="cls-1" x="60.8" y="51.2" width="3.2" height="3.2"/>
      <rect class="cls-1" x="64" y="51.2" width="3.2" height="3.2"/>
      <rect class="cls-1" x="67.2" y="51.2" width="3.2" height="3.2"/>
      <rect class="cls-1" x="76.8" y="51.2" width="3.2" height="3.2"/>
      <rect class="cls-1" x="25.6" y="54.4" width="3.2" height="3.2"/>
      <rect class="cls-1" x="51.2" y="54.4" width="3.2" height="3.2"/>
      <rect class="cls-1" x="64" y="54.4" width="3.2" height="3.2"/>
      <rect class="cls-1" x="76.8" y="54.4" width="3.2" height="3.2"/>
      <rect class="cls-1" x="25.6" y="57.6" width="3.2" height="3.2"/>
      <rect class="cls-1" x="28.8" y="57.6" width="3.2" height="3.2"/>
      <rect class="cls-1" x="35.2" y="57.6" width="3.2" height="3.2"/>
      <rect class="cls-1" x="38.4" y="57.6" width="3.2" height="3.2"/>
      <rect class="cls-1" x="41.6" y="57.6" width="3.2" height="3.2"/>
      <rect class="cls-1" x="44.8" y="57.6" width="3.2" height="3.2"/>
      <rect class="cls-1" x="51.2" y="57.6" width="3.2" height="3.2"/>
      <rect class="cls-1" x="57.6" y="57.6" width="3.2" height="3.2"/>
      <rect class="cls-1" x="64" y="57.6" width="3.2" height="3.2"/>
      <rect class="cls-1" x="70.4" y="57.6" width="3.2" height="3.2"/>
      <rect class="cls-1" x="73.6" y="57.6" width="3.2" height="3.2"/>
      <rect class="cls-1" x="76.8" y="57.6" width="3.2" height="3.2"/>
      <rect class="cls-1" x="28.8" y="60.8" width="3.2" height="3.2"/>
      <rect class="cls-1" x="32" y="60.8" width="3.2" height="3.2"/>
      <rect class="cls-1" x="35.2" y="60.8" width="3.2" height="3.2"/>
      <rect class="cls-1" x="41.6" y="60.8" width="3.2" height="3.2"/>
      <rect class="cls-1" x="51.2" y="60.8" width="3.2" height="3.2"/>
      <rect class="cls-1" x="64" y="60.8" width="3.2" height="3.2"/>
      <rect class="cls-1" x="67.2" y="60.8" width="3.2" height="3.2"/>
      <rect class="cls-1" x="25.6" y="64" width="3.2" height="3.2"/>
      <rect class="cls-1" x="28.8" y="64" width="3.2" height="3.2"/>
      <rect class="cls-1" x="32" y="64" width="3.2" height="3.2"/>
      <rect class="cls-1" x="35.2" y="64" width="3.2" height="3.2"/>
      <rect class="cls-1" x="38.4" y="64" width="3.2" height="3.2"/>
      <rect class="cls-1" x="41.6" y="64" width="3.2" height="3.2"/>
      <rect class="cls-1" x="44.8" y="64" width="3.2" height="3.2"/>
      <rect class="cls-1" x="51.2" y="64" width="3.2" height="3.2"/>
      <rect class="cls-1" x="54.4" y="64" width="3.2" height="3.2"/>
      <rect class="cls-1" x="57.6" y="64" width="3.2" height="3.2"/>
      <rect class="cls-1" x="60.8" y="64" width="3.2" height="3.2"/>
      <rect class="cls-1" x="64" y="64" width="3.2" height="3.2"/>
      <rect class="cls-1" x="67.2" y="64" width="3.2" height="3.2"/>
      <rect class="cls-1" x="25.6" y="67.2" width="3.2" height="3.2"/>
      <rect class="cls-1" x="32" y="67.2" width="3.2" height="3.2"/>
      <rect class="cls-1" x="38.4" y="67.2" width="3.2" height="3.2"/>
      <rect class="cls-1" x="48" y="67.2" width="3.2" height="3.2"/>
      <rect class="cls-1" x="51.2" y="67.2" width="3.2" height="3.2"/>
      <rect class="cls-1" x="57.6" y="67.2" width="3.2" height="3.2"/>
      <rect class="cls-1" x="64" y="67.2" width="3.2" height="3.2"/>
      <rect class="cls-1" x="73.6" y="67.2" width="3.2" height="3.2"/>
      <rect class="cls-1" x="76.8" y="67.2" width="3.2" height="3.2"/>
      <rect class="cls-1" x="25.6" y="70.4" width="3.2" height="3.2"/>
      <rect class="cls-1" x="32" y="70.4" width="3.2" height="3.2"/>
      <rect class="cls-1" x="38.4" y="70.4" width="3.2" height="3.2"/>
      <rect class="cls-1" x="44.8" y="70.4" width="3.2" height="3.2"/>
      <rect class="cls-1" x="64" y="70.4" width="3.2" height="3.2"/>
      <rect class="cls-1" x="70.4" y="70.4" width="3.2" height="3.2"/>
      <rect class="cls-1" x="76.8" y="70.4" width="3.2" height="3.2"/>
      <rect class="cls-1" x="25.6" y="73.6" width="3.2" height="3.2"/>
      <rect class="cls-1" x="28.8" y="73.6" width="3.2" height="3.2"/>
      <rect class="cls-1" x="38.4" y="73.6" width="3.2" height="3.2"/>
      <rect class="cls-1" x="51.2" y="73.6" width="3.2" height="3.2"/>
      <rect class="cls-1" x="54.4" y="73.6" width="3.2" height="3.2"/>
      <rect class="cls-1" x="57.6" y="73.6" width="3.2" height="3.2"/>
      <rect class="cls-1" x="60.8" y="73.6" width="3.2" height="3.2"/>
      <rect class="cls-1" x="64" y="73.6" width="3.2" height="3.2"/>
      <rect class="cls-1" x="67.2" y="73.6" width="3.2" height="3.2"/>
      <rect class="cls-1" x="73.6" y="73.6" width="3.2" height="3.2"/>
      <rect class="cls-1" x="25.6" y="76.8" width="3.2" height="3.2"/>
      <rect class="cls-1" x="28.8" y="76.8" width="3.2" height="3.2"/>
      <rect class="cls-1" x="32" y="76.8" width="3.2" height="3.2"/>
      <rect class="cls-1" x="41.6" y="76.8" width="3.2" height="3.2"/>
      <rect class="cls-1" x="48" y="76.8" width="3.2" height="3.2"/>
      <rect class="cls-1" x="70.4" y="76.8" width="3.2" height="3.2"/>
      <rect class="cls-1" x="73.6" y="76.8" width="3.2" height="3.2"/>
      <rect class="cls-1" x="76.8" y="76.8" width="3.2" height="3.2"/>
      <path class="cls-1" d="m.68,0c-.37,0-.68.31-.68.68v21.04c0,.37.3.68.68.68h21.04c.37,0,.68-.3.68-.68V.68C22.41.31,22.1,0,21.72,0,21.72,0,.68,0,.68,0Zm18.52,6.4v12.41c0,.22-.18.39-.39.39H3.59c-.22,0-.39-.18-.39-.39V3.59c0-.22.18-.39.39-.39h15.22c.22,0,.39.18.39.39v2.81Z"/>
      <path class="cls-1" d="m16,12.8v-5.72c0-.37-.3-.68-.68-.68H7.08c-.37,0-.68.3-.68.68v8.24c0,.37.3.68.68.68h8.24c.37,0,.68-.3.68-.68v-2.52Z"/>
      <path class="cls-1" d="m58.28,0c-.37,0-.68.31-.68.68v21.04c0,.37.3.68.68.68h21.04c.37,0,.68-.3.68-.68V.68C80.01.31,79.7,0,79.32,0,79.32,0,58.28,0,58.28,0Zm18.52,6.4v12.41c0,.22-.18.39-.39.39h-15.22c-.22,0-.39-.18-.39-.39V3.59c0-.22.18-.39.39-.39h15.22c.22,0,.39.18.39.39v2.81Z"/>
      <path class="cls-1" d="m73.6,12.8v-5.72c0-.37-.3-.68-.68-.68h-8.24c-.37,0-.68.3-.68.68v8.24c0,.37.3.68.68.68h8.24c.37,0,.68-.3.68-.68v-2.52Z"/>
      <path class="cls-1" d="m.68,57.6c-.37,0-.68.31-.68.68v21.04c0,.37.3.68.68.68h21.04c.37,0,.68-.3.68-.68v-21.04c0-.37-.3-.68-.68-.68,0,0-21.04,0-21.04,0Zm18.52,6.4v12.41c0,.22-.18.39-.39.39H3.59c-.22,0-.39-.18-.39-.39v-15.22c0-.22.18-.39.39-.39h15.22c.22,0,.39.18.39.39v2.81Z"/>
      <path class="cls-1" d="m16,70.4v-5.72c0-.37-.3-.68-.68-.68H7.08c-.37,0-.68.3-.68.68v8.24c0,.37.3.68.68.68h8.24c.37,0,.68-.3.68-.68v-2.52Z"/>
    </g>
  </g>
</svg>